<?xml version="1.0" encoding="UTF-8"?>
<svg width="24px" height="21px" viewBox="0 0 24 21" version="1.1" xmlns="http://www.w3.org/2000/svg" xmlns:xlink="http://www.w3.org/1999/xlink">
    <title>heart</title>
    <g id="Page-1" stroke="none" stroke-width="1" fill="none" fill-rule="evenodd" stroke-linecap="round" stroke-linejoin="round">
        <g id="heart" transform="translate(1.548800, 0.998000)" stroke="#000000" stroke-width="2">
            <path d="M19.2913,1.6119 C18.7806,1.1009 18.1741,0.6955 17.5067,0.419 C16.8392,0.1424 16.1238,-3.55271368e-15 15.4013,-3.55271368e-15 C14.6788,-3.55271368e-15 13.9634,0.1424 13.296,0.419 C12.6285,0.6955 12.0221,1.1009 11.5113,1.6119 L10.4513,2.6719 L9.3913,1.6119 C8.3596,0.5802 6.9604,0.0006 5.5013,0.0006 C4.0423,0.0006 2.643,0.5802 1.6113,1.6119 C0.5796,2.6436 0,4.0428 0,5.5019 C0,6.9609 0.5796,8.3602 1.6113,9.3919 L2.6713,10.4519 L10.4513,18.2319 L18.2313,10.4519 L19.2913,9.3919 C19.8023,8.8811 20.2077,8.2747 20.4842,7.6072 C20.7608,6.9398 20.9031,6.2244 20.9031,5.5019 C20.9031,4.7794 20.7608,4.064 20.4842,3.3965 C20.2077,2.7291 19.8023,2.1226 19.2913,1.6119 L19.2913,1.6119 Z" id="Path"></path>
        </g>
    </g>
</svg>