<?xml version="1.0" encoding="UTF-8"?>
<svg width="16px" height="15px" viewBox="0 0 16 15" version="1.1" xmlns="http://www.w3.org/2000/svg" xmlns:xlink="http://www.w3.org/1999/xlink">
    <title>heart-gray</title>
    <g id="Page-1" stroke="none" stroke-width="1" fill="none" fill-rule="evenodd">
        <g id="heart-gray" transform="translate(1.000000, 1.000000)" stroke="#AAAAAA" stroke-width="2">
            <path d="M12.8941,1.07357 C12.5536,0.73291 12.1493,0.46267 11.7043,0.2783 C11.2593,0.09392 10.7824,-0.00098 10.3007,-0.00098 C9.8191,-0.00098 9.3421,0.09392 8.89716,0.2783 C8.45219,0.46267 8.0479,0.73291 7.7074,1.07357 L7.00073,1.78024 L6.29406,1.07357 C5.60627,0.38578 4.67342,-0.00062 3.70073,-0.00062 C2.72804,-0.00062 1.79519,0.38578 1.1074,1.07357 C0.4196,1.76137 0.0332,2.69422 0.0332,3.66691 C0.0332,4.6396 0.4196,5.57245 1.1074,6.26024 L1.81406,6.96691 L7.00073,12.1536 L12.1874,6.96691 L12.8941,6.26024 C13.2347,5.91974 13.505,5.51545 13.6893,5.07048 C13.8737,4.6255 13.9686,4.14857 13.9686,3.66691 C13.9686,3.18525 13.8737,2.70831 13.6893,2.26334 C13.505,1.81836 13.2347,1.41408 12.8941,1.07357 L12.8941,1.07357 Z" id="Path"></path>
        </g>
    </g>
</svg>