<?xml version="1.0" encoding="UTF-8"?>
<svg width="36px" height="36px" viewBox="0 0 36 36" version="1.1" xmlns="http://www.w3.org/2000/svg" xmlns:xlink="http://www.w3.org/1999/xlink">
    <title>instagram</title>
    <g id="Page-1" stroke="none" stroke-width="1" fill="none" fill-rule="evenodd">
        <g id="instagram" fill="#AAAAAA">
            <path d="M18,0 C8.059,0 0,8.0589 0,18 C0,27.9411 8.059,36 18,36 C27.941,36 36,27.9411 36,18 C36,8.0589 27.941,0 18,0 Z M18.001,7.5 C15.149,7.5 14.791,7.5124 13.671,7.5634 C12.554,7.6146 11.791,7.7916 11.123,8.0512 C10.432,8.3194 9.846,8.6782 9.263,9.262 C8.679,9.8457 8.32,10.4315 8.051,11.1219 C7.791,11.7897 7.613,12.5529 7.563,13.6703 C7.513,14.7903 7.5,15.1484 7.5,18.0001 C7.5,20.8518 7.513,21.2086 7.563,22.3286 C7.615,23.4464 7.792,24.2094 8.051,24.8771 C8.32,25.5677 8.678,26.1535 9.262,26.7371 C9.846,27.3212 10.431,27.6808 11.122,27.949 C11.79,28.2087 12.553,28.3856 13.671,28.4368 C14.791,28.4878 15.148,28.5003 18,28.5003 C20.852,28.5003 21.208,28.4878 22.328,28.4368 C23.446,28.3856 24.21,28.2087 24.878,27.949 C25.568,27.6808 26.153,27.3212 26.737,26.7371 C27.321,26.1535 27.68,25.5677 27.949,24.8773 C28.207,24.2094 28.384,23.4462 28.437,22.3288 C28.487,21.2088 28.5,20.8518 28.5,18.0001 C28.5,15.1484 28.487,14.7906 28.437,13.6706 C28.384,12.5527 28.207,11.7897 27.949,11.1221 C27.68,10.4315 27.321,9.8457 26.737,9.262 C26.153,8.6779 25.569,8.3192 24.877,8.0512 C24.208,7.7916 23.445,7.6146 22.327,7.5634 C21.207,7.5124 20.85,7.5 17.998,7.5 L18.001,7.5 Z M17.651,9.3921 L17.651,9.3921 L18.001,9.3922 C20.805,9.3922 21.137,9.4022 22.244,9.4525 C23.268,9.4993 23.823,9.6704 24.193,9.8141 C24.684,10.0044 25.033,10.232 25.4,10.5995 C25.768,10.967 25.995,11.317 26.186,11.807 C26.33,12.1767 26.501,12.7323 26.547,13.7561 C26.598,14.863 26.609,15.1955 26.609,17.9977 C26.609,20.7999 26.598,21.1324 26.547,22.2393 C26.501,23.2631 26.33,23.8187 26.186,24.1884 C25.996,24.6784 25.768,25.0273 25.4,25.3946 C25.033,25.7621 24.684,25.9896 24.193,26.1799 C23.824,26.3243 23.268,26.4949 22.244,26.5417 C21.137,26.5921 20.805,26.603 18.001,26.603 C15.197,26.603 14.865,26.5921 13.758,26.5417 C12.734,26.4945 12.179,26.3234 11.808,26.1797 C11.318,25.9894 10.968,25.7619 10.601,25.3944 C10.233,25.0269 10.006,24.6777 9.815,24.1875 C9.671,23.8178 9.5,23.2622 9.453,22.2384 C9.403,21.1315 9.393,20.799 9.393,17.9951 C9.393,15.1911 9.403,14.8603 9.453,13.7534 C9.5,12.7297 9.671,12.174 9.815,11.8039 C10.005,11.3139 10.233,10.9639 10.601,10.5964 C10.968,10.2289 11.318,10.0014 11.808,9.8106 C12.178,9.6663 12.734,9.4956 13.758,9.4486 C14.727,9.4048 15.102,9.3917 17.059,9.3895 L17.059,9.3922 C17.242,9.3919 17.438,9.392 17.65,9.3921 L17.651,9.3921 Z M22.346,12.3952 C22.346,11.6994 22.91,11.1356 23.606,11.1356 L23.606,11.1352 C24.301,11.1352 24.866,11.6996 24.866,12.3952 C24.866,13.0909 24.301,13.6552 23.606,13.6552 C22.91,13.6552 22.346,13.0909 22.346,12.3952 Z M12.609,18.0001 C12.609,15.0222 15.023,12.6079 18.001,12.6079 C20.979,12.6079 23.392,15.0223 23.392,18.0001 C23.392,20.978 20.979,23.3913 18.001,23.3913 C15.023,23.3913 12.609,20.978 12.609,18.0001 Z M21.501,18.0001 C21.501,16.067 19.934,14.5 18.001,14.5 C16.068,14.5 14.501,16.067 14.501,18.0001 C14.501,19.933 16.068,21.5001 18.001,21.5001 C19.934,21.5001 21.501,19.933 21.501,18.0001 Z" id="Shape"></path>
        </g>
    </g>
</svg>