<?xml version="1.0" encoding="UTF-8"?>
<svg width="36px" height="36px" viewBox="0 0 36 36" version="1.1" xmlns="http://www.w3.org/2000/svg" xmlns:xlink="http://www.w3.org/1999/xlink">
    <title>twitter</title>
    <g id="Page-1" stroke="none" stroke-width="1" fill="none" fill-rule="evenodd">
        <g id="twitter" fill="#AAAAAA">
            <path d="M18,0 C8.059,0 0,8.0589 0,18 C0,27.9411 8.059,36 18,36 C27.941,36 36,27.9411 36,18 C36,8.0589 27.941,0 18,0 Z M17.499,15.2535 L17.461,14.6306 C17.348,13.0163 18.342,11.5418 19.916,10.9698 C20.495,10.7665 21.477,10.741 22.119,10.919 C22.371,10.9953 22.85,11.2495 23.19,11.4783 L23.807,11.8978 L24.486,11.6817 C24.864,11.5673 25.368,11.3766 25.594,11.2495 C25.808,11.1351 25.997,11.0715 25.997,11.1097 C25.997,11.3258 25.531,12.063 25.141,12.4697 C24.612,13.0417 24.763,13.0926 25.834,12.7113 C26.476,12.4952 26.488,12.4952 26.362,12.7367 C26.287,12.8638 25.897,13.3087 25.481,13.7154 C24.776,14.4145 24.738,14.4908 24.738,15.0755 C24.738,15.978 24.31,17.8592 23.882,18.8888 C23.089,20.8209 21.389,22.8165 19.689,23.8207 C17.297,25.2316 14.112,25.5875 11.43,24.7613 C10.536,24.4817 9,23.7699 9,23.6427 C9,23.6046 9.466,23.5538 10.032,23.5411 C11.216,23.5156 12.399,23.1852 13.407,22.6004 L14.087,22.1937 L13.306,21.9268 C12.198,21.5454 11.203,20.6684 10.952,19.8421 C10.876,19.5752 10.901,19.5625 11.606,19.5625 L12.337,19.5498 L11.72,19.2574 C10.989,18.8888 10.322,18.266 9.995,17.6304 C9.755,17.1728 9.453,16.0161 9.541,15.9272 C9.567,15.889 9.831,15.9653 10.133,16.067 C11.002,16.3847 11.115,16.3085 10.612,15.7746 C9.667,14.8086 9.378,13.3722 9.831,12.0122 L10.045,11.402 L10.876,12.2282 C12.576,13.8934 14.578,14.8848 16.869,15.1772 L17.499,15.2535 Z" id="Shape"></path>
        </g>
    </g>
</svg>