<svg width="174" height="174" viewBox="0 0 174 174" fill="none" xmlns="http://www.w3.org/2000/svg">
<path d="M74.5928 27.9867L13.1853 130.502C11.9192 132.694 11.2493 135.18 11.2422 137.712C11.2352 140.244 11.8911 142.733 13.1449 144.933C14.3987 147.133 16.2066 148.966 18.3887 150.25C20.5708 151.534 23.0511 152.224 25.5828 152.252H148.398C150.93 152.224 153.41 151.534 155.592 150.25C157.774 148.966 159.582 147.133 160.836 144.933C162.09 142.733 162.745 140.244 162.738 137.712C162.731 135.18 162.061 132.694 160.795 130.502L99.3878 27.9867C98.0954 25.856 96.2756 24.0943 94.104 22.8717C91.9324 21.6491 89.4824 21.0068 86.9903 21.0068C84.4982 21.0068 82.0482 21.6491 79.8767 22.8717C77.7051 24.0943 75.8853 25.856 74.5928 27.9867V27.9867Z" stroke="#DC042B" stroke-width="14.5" stroke-linecap="round" stroke-linejoin="round"/>
<path d="M87 65.25V94.25" stroke="#DC042B" stroke-width="14.5" stroke-linecap="round" stroke-linejoin="round"/>
<path d="M87 123.25H87.0725" stroke="#DC042B" stroke-width="14.5" stroke-linecap="round" stroke-linejoin="round"/>
</svg>
