<?xml version="1.0" encoding="UTF-8"?>
<svg width="119px" height="37px" viewBox="0 0 119 37" version="1.1" xmlns="http://www.w3.org/2000/svg" xmlns:xlink="http://www.w3.org/1999/xlink">
    <title>Group</title>
    <g id="Page-1" stroke="none" stroke-width="1" fill="none" fill-rule="evenodd">
        <g id="Group" fill-rule="nonzero">
            <rect id="Rectangle" fill="#4267B2" x="0" y="0.371094" width="119" height="36"></rect>
            <path d="M27.9993,11.7041 L25.9993,11.7041 C25.1153,11.7041 24.2674,12.0553 23.6423,12.6804 C23.0172,13.3055 22.666,14.1534 22.666,15.0374 L22.666,17.0374 L20.666,17.0374 L20.666,19.7041 L22.666,19.7041 L22.666,25.0374 L25.3327,25.0374 L25.3327,19.7041 L27.3327,19.7041 L27.9993,17.0374 L25.3327,17.0374 L25.3327,15.0374 C25.3327,14.8606 25.4029,14.6911 25.5279,14.566 C25.653,14.441 25.8225,14.3708 25.9993,14.3708 L27.9993,14.3708 L27.9993,11.7041 Z" id="Path" fill="#FFFFFF"></path>
            <path d="M42.2709,23.4551 C42.0003,23.4551 41.7809,23.3711 41.6129,23.2031 C41.4543,23.0351 41.3749,22.8158 41.3749,22.5451 L41.3749,14.3551 C41.3749,14.0844 41.4496,13.8744 41.5989,13.7251 C41.7576,13.5758 41.9723,13.5011 42.2429,13.5011 L47.1569,13.5011 C47.7263,13.5011 48.0109,13.7438 48.0109,14.2291 C48.0109,14.7051 47.7263,14.9431 47.1569,14.9431 L43.1529,14.9431 L43.1529,17.6311 L46.8769,17.6311 C47.4463,17.6311 47.7309,17.8738 47.7309,18.3591 C47.7309,18.8351 47.4463,19.0731 46.8769,19.0731 L43.1529,19.0731 L43.1529,22.5451 C43.1529,22.8158 43.0736,23.0351 42.9149,23.2031 C42.7563,23.3711 42.5416,23.4551 42.2709,23.4551 Z M52.0135,16.3571 C52.9655,16.3571 53.6702,16.5951 54.1275,17.0711 C54.5942,17.5378 54.8275,18.2518 54.8275,19.2131 L54.8275,22.6291 C54.8275,22.8811 54.7529,23.0818 54.6035,23.2311 C54.4542,23.3711 54.2489,23.4411 53.9875,23.4411 C53.7449,23.4411 53.5442,23.3664 53.3855,23.2171 C53.2362,23.0678 53.1615,22.8718 53.1615,22.6291 L53.1615,22.3211 C53.0029,22.6851 52.7509,22.9698 52.4055,23.1751 C52.0695,23.3804 51.6775,23.4831 51.2295,23.4831 C50.7722,23.4831 50.3569,23.3898 49.9835,23.2031 C49.6102,23.0164 49.3162,22.7598 49.1015,22.4331 C48.8869,22.1064 48.7795,21.7424 48.7795,21.3411 C48.7795,20.8371 48.9055,20.4404 49.1575,20.1511 C49.4189,19.8618 49.8389,19.6518 50.4175,19.5211 C50.9962,19.3904 51.7942,19.3251 52.8115,19.3251 L53.1615,19.3251 L53.1615,19.0031 C53.1615,18.5458 53.0635,18.2144 52.8675,18.0091 C52.6715,17.7944 52.3542,17.6871 51.9155,17.6871 C51.6449,17.6871 51.3695,17.7291 51.0895,17.8131 C50.8095,17.8878 50.4782,17.9998 50.0955,18.1491 C49.8529,18.2704 49.6755,18.3311 49.5635,18.3311 C49.3955,18.3311 49.2555,18.2704 49.1435,18.1491 C49.0409,18.0278 48.9895,17.8691 48.9895,17.6731 C48.9895,17.5144 49.0269,17.3791 49.1015,17.2671 C49.1855,17.1458 49.3209,17.0338 49.5075,16.9311 C49.8342,16.7538 50.2215,16.6138 50.6695,16.5111 C51.1269,16.4084 51.5749,16.3571 52.0135,16.3571 Z M51.5795,22.2231 C52.0462,22.2231 52.4242,22.0691 52.7135,21.7611 C53.0122,21.4438 53.1615,21.0378 53.1615,20.5431 L53.1615,20.2491 L52.9095,20.2491 C52.2842,20.2491 51.7989,20.2771 51.4535,20.3331 C51.1082,20.3891 50.8609,20.4871 50.7115,20.6271 C50.5622,20.7671 50.4875,20.9584 50.4875,21.2011 C50.4875,21.4998 50.5902,21.7471 50.7955,21.9431 C51.0102,22.1298 51.2715,22.2231 51.5795,22.2231 Z M59.7441,23.4831 C59.0628,23.4831 58.4608,23.3384 57.9381,23.0491 C57.4248,22.7598 57.0281,22.3491 56.7481,21.8171 C56.4681,21.2851 56.3281,20.6644 56.3281,19.9551 C56.3281,19.2458 56.4728,18.6204 56.7621,18.0791 C57.0608,17.5284 57.4761,17.1038 58.0081,16.8051 C58.5401,16.5064 59.1514,16.3571 59.8421,16.3571 C60.2061,16.3571 60.5701,16.4084 60.9341,16.5111 C61.3074,16.6138 61.6341,16.7538 61.9141,16.9311 C62.2128,17.1271 62.3621,17.3744 62.3621,17.6731 C62.3621,17.8784 62.3108,18.0464 62.2081,18.1771 C62.1148,18.2984 61.9888,18.3591 61.8301,18.3591 C61.7274,18.3591 61.6201,18.3358 61.5081,18.2891 C61.3961,18.2424 61.2841,18.1864 61.1721,18.1211 C60.9668,17.9998 60.7708,17.9064 60.5841,17.8411 C60.3974,17.7664 60.1828,17.7291 59.9401,17.7291 C59.3614,17.7291 58.9134,17.9204 58.5961,18.3031 C58.2881,18.6764 58.1341,19.2178 58.1341,19.9271 C58.1341,20.6271 58.2881,21.1684 58.5961,21.5511 C58.9134,21.9244 59.3614,22.1111 59.9401,22.1111 C60.1734,22.1111 60.3788,22.0784 60.5561,22.0131 C60.7428,21.9384 60.9481,21.8404 61.1721,21.7191 C61.3121,21.6351 61.4334,21.5744 61.5361,21.5371 C61.6388,21.4904 61.7414,21.4671 61.8441,21.4671 C61.9934,21.4671 62.1194,21.5324 62.2221,21.6631 C62.3248,21.7938 62.3761,21.9571 62.3761,22.1531 C62.3761,22.3118 62.3388,22.4518 62.2641,22.5731 C62.1988,22.6851 62.0868,22.7878 61.9281,22.8811 C61.6388,23.0678 61.3028,23.2171 60.9201,23.3291 C60.5374,23.4318 60.1454,23.4831 59.7441,23.4831 Z M69.06,21.4951 C69.2187,21.4951 69.3447,21.5558 69.438,21.6771 C69.5407,21.7984 69.592,21.9618 69.592,22.1671 C69.592,22.4564 69.4194,22.6991 69.074,22.8951 C68.7567,23.0724 68.3974,23.2171 67.996,23.3291 C67.5947,23.4318 67.212,23.4831 66.848,23.4831 C65.7467,23.4831 64.874,23.1658 64.23,22.5311 C63.586,21.8964 63.264,21.0284 63.264,19.9271 C63.264,19.2271 63.404,18.6064 63.684,18.0651 C63.964,17.5238 64.356,17.1038 64.86,16.8051 C65.3734,16.5064 65.952,16.3571 66.596,16.3571 C67.212,16.3571 67.7487,16.4924 68.206,16.7631 C68.6634,17.0338 69.018,17.4164 69.27,17.9111 C69.522,18.4058 69.648,18.9891 69.648,19.6611 C69.648,20.0624 69.4707,20.2631 69.116,20.2631 L64.986,20.2631 C65.042,20.9071 65.224,21.3831 65.532,21.6911 C65.84,21.9898 66.288,22.1391 66.876,22.1391 C67.1747,22.1391 67.436,22.1018 67.66,22.0271 C67.8934,21.9524 68.1547,21.8498 68.444,21.7191 C68.724,21.5698 68.9294,21.4951 69.06,21.4951 Z M66.638,17.5891 C66.162,17.5891 65.7794,17.7384 65.49,18.0371 C65.21,18.3358 65.042,18.7651 64.986,19.3251 L68.15,19.3251 C68.1314,18.7558 67.9914,18.3264 67.73,18.0371 C67.4687,17.7384 67.1047,17.5891 66.638,17.5891 Z M75.1135,16.3571 C75.7109,16.3571 76.2382,16.5018 76.6955,16.7911 C77.1529,17.0804 77.5075,17.4911 77.7595,18.0231 C78.0209,18.5551 78.1515,19.1758 78.1515,19.8851 C78.1515,20.5944 78.0209,21.2244 77.7595,21.7751 C77.5075,22.3164 77.1482,22.7364 76.6815,23.0351 C76.2242,23.3338 75.7015,23.4831 75.1135,23.4831 C74.6189,23.4831 74.1755,23.3758 73.7835,23.1611 C73.4009,22.9464 73.1069,22.6478 72.9015,22.2651 L72.9015,22.6151 C72.9015,22.8671 72.8222,23.0678 72.6635,23.2171 C72.5049,23.3664 72.2949,23.4411 72.0335,23.4411 C71.7722,23.4411 71.5622,23.3664 71.4035,23.2171 C71.2542,23.0678 71.1795,22.8671 71.1795,22.6151 L71.1795,14.2431 C71.1795,14.0004 71.2589,13.8044 71.4175,13.6551 C71.5855,13.5058 71.8002,13.4311 72.0615,13.4311 C72.3229,13.4311 72.5329,13.5011 72.6915,13.6411 C72.8502,13.7811 72.9295,13.9724 72.9295,14.2151 L72.9295,17.5191 C73.1349,17.1458 73.4289,16.8611 73.8115,16.6651 C74.1942,16.4598 74.6282,16.3571 75.1135,16.3571 Z M74.6515,22.1251 C75.2022,22.1251 75.6315,21.9291 75.9395,21.5371 C76.2475,21.1451 76.4015,20.5944 76.4015,19.8851 C76.4015,19.1851 76.2475,18.6484 75.9395,18.2751 C75.6409,17.9018 75.2115,17.7151 74.6515,17.7151 C74.0915,17.7151 73.6575,17.9064 73.3495,18.2891 C73.0509,18.6624 72.9015,19.2038 72.9015,19.9131 C72.9015,20.6224 73.0509,21.1684 73.3495,21.5511 C73.6575,21.9338 74.0915,22.1251 74.6515,22.1251 Z M82.8097,23.4831 C82.1097,23.4831 81.4937,23.3384 80.9617,23.0491 C80.4391,22.7598 80.0331,22.3444 79.7437,21.8031 C79.4544,21.2618 79.3097,20.6318 79.3097,19.9131 C79.3097,19.1944 79.4544,18.5691 79.7437,18.0371 C80.0331,17.4958 80.4391,17.0804 80.9617,16.7911 C81.4937,16.5018 82.1097,16.3571 82.8097,16.3571 C83.5097,16.3571 84.1211,16.5018 84.6437,16.7911 C85.1757,17.0804 85.5817,17.4958 85.8617,18.0371 C86.1511,18.5691 86.2957,19.1944 86.2957,19.9131 C86.2957,20.6318 86.1511,21.2618 85.8617,21.8031 C85.5817,22.3444 85.1757,22.7598 84.6437,23.0491 C84.1211,23.3384 83.5097,23.4831 82.8097,23.4831 Z M82.7957,22.1251 C83.3651,22.1251 83.7991,21.9384 84.0977,21.5651 C84.3964,21.1918 84.5457,20.6411 84.5457,19.9131 C84.5457,19.1944 84.3964,18.6484 84.0977,18.2751 C83.7991,17.8924 83.3697,17.7011 82.8097,17.7011 C82.2497,17.7011 81.8157,17.8924 81.5077,18.2751 C81.2091,18.6484 81.0597,19.1944 81.0597,19.9131 C81.0597,20.6411 81.2091,21.1918 81.5077,21.5651 C81.8064,21.9384 82.2357,22.1251 82.7957,22.1251 Z M90.9625,23.4831 C90.2625,23.4831 89.6465,23.3384 89.1145,23.0491 C88.5918,22.7598 88.1858,22.3444 87.8965,21.8031 C87.6071,21.2618 87.4625,20.6318 87.4625,19.9131 C87.4625,19.1944 87.6071,18.5691 87.8965,18.0371 C88.1858,17.4958 88.5918,17.0804 89.1145,16.7911 C89.6465,16.5018 90.2625,16.3571 90.9625,16.3571 C91.6625,16.3571 92.2738,16.5018 92.7965,16.7911 C93.3285,17.0804 93.7345,17.4958 94.0145,18.0371 C94.3038,18.5691 94.4485,19.1944 94.4485,19.9131 C94.4485,20.6318 94.3038,21.2618 94.0145,21.8031 C93.7345,22.3444 93.3285,22.7598 92.7965,23.0491 C92.2738,23.3384 91.6625,23.4831 90.9625,23.4831 Z M90.9485,22.1251 C91.5178,22.1251 91.9518,21.9384 92.2505,21.5651 C92.5491,21.1918 92.6985,20.6411 92.6985,19.9131 C92.6985,19.1944 92.5491,18.6484 92.2505,18.2751 C91.9518,17.8924 91.5225,17.7011 90.9625,17.7011 C90.4025,17.7011 89.9685,17.8924 89.6605,18.2751 C89.3618,18.6484 89.2125,19.1944 89.2125,19.9131 C89.2125,20.6411 89.3618,21.1918 89.6605,21.5651 C89.9591,21.9384 90.3885,22.1251 90.9485,22.1251 Z M102.083,22.0131 C102.27,22.1904 102.363,22.3911 102.363,22.6151 C102.363,22.8298 102.284,23.0211 102.125,23.1891 C101.976,23.3571 101.799,23.4411 101.593,23.4411 C101.388,23.4411 101.197,23.3571 101.019,23.1891 L97.7432,20.2211 L97.7432,22.6151 C97.7432,22.8858 97.6592,23.0911 97.4912,23.2311 C97.3232,23.3711 97.1132,23.4411 96.8612,23.4411 C96.6092,23.4411 96.3992,23.3711 96.2312,23.2311 C96.0725,23.0911 95.9932,22.8858 95.9932,22.6151 L95.9932,14.2571 C95.9932,13.9864 96.0725,13.7811 96.2312,13.6411 C96.3992,13.5011 96.6092,13.4311 96.8612,13.4311 C97.1132,13.4311 97.3232,13.5011 97.4912,13.6411 C97.6592,13.7811 97.7432,13.9864 97.7432,14.2571 L97.7432,19.5211 L100.739,16.6511 C100.907,16.4831 101.099,16.3991 101.313,16.3991 C101.528,16.3991 101.715,16.4784 101.873,16.6371 C102.032,16.7958 102.111,16.9824 102.111,17.1971 C102.111,17.4118 102.023,17.6078 101.845,17.7851 L99.6472,19.8291 L102.083,22.0131 Z" id="Shape" fill="#FFFFFF"></path>
        </g>
    </g>
</svg>