<?xml version="1.0" encoding="UTF-8"?>
<svg width="103px" height="37px" viewBox="0 0 103 37" version="1.1" xmlns="http://www.w3.org/2000/svg" xmlns:xlink="http://www.w3.org/1999/xlink">
    <title>Group</title>
    <g id="Page-1" stroke="none" stroke-width="1" fill="none" fill-rule="evenodd">
        <g id="Group" fill-rule="nonzero">
            <rect id="Rectangle" fill="#DB4437" x="0" y="0.371094" width="103" height="36"></rect>
            <path d="M29.7664,17.2836 L24.1211,17.2836 L24.1211,19.6039 L27.3461,19.6039 C27.207,20.3539 26.7852,20.9883 26.1492,21.4133 C25.6117,21.7727 24.9258,21.9852 24.1195,21.9852 C22.5586,21.9852 21.2383,20.9305 20.7664,19.5133 C20.6477,19.1539 20.5789,18.7695 20.5789,18.3742 C20.5789,17.9789 20.6477,17.5945 20.7664,17.2352 C21.2398,15.8195 22.5602,14.7648 24.1211,14.7648 C25.0008,14.7648 25.7898,15.068 26.4117,15.6617 L28.1305,13.9414 C27.0914,12.9727 25.7367,12.3789 24.1211,12.3789 C21.7789,12.3789 19.7523,13.7227 18.7664,15.682 C18.3602,16.4914 18.1289,17.407 18.1289,18.3758 C18.1289,19.3445 18.3602,20.2586 18.7664,21.068 C19.7523,23.0273 21.7789,24.3711 24.1211,24.3711 C25.7398,24.3711 27.0961,23.8336 28.0867,22.918 C29.2195,21.8742 29.8742,20.3367 29.8742,18.5102 C29.8742,18.0852 29.8367,17.6773 29.7664,17.2836 Z" id="Path" fill="#FFFFFF"></path>
            <path d="M48.8611,18.0371 C49.0758,18.0371 49.2484,18.1024 49.3791,18.2331 C49.5098,18.3544 49.5751,18.5178 49.5751,18.7231 L49.5751,21.7331 C49.5751,22.1624 49.5191,22.4658 49.4071,22.6431 C49.2951,22.8204 49.0664,22.9651 48.7211,23.0771 C48.3478,23.2078 47.9138,23.3104 47.4191,23.3851 C46.9244,23.4598 46.4484,23.4971 45.9911,23.4971 C44.9738,23.4971 44.0918,23.2964 43.3451,22.8951 C42.5984,22.4938 42.0244,21.9151 41.6231,21.1591 C41.2311,20.3938 41.0351,19.4838 41.0351,18.4291 C41.0351,17.3931 41.2311,16.4971 41.6231,15.7411 C42.0244,14.9758 42.5891,14.3924 43.3171,13.9911 C44.0451,13.5804 44.9038,13.3751 45.8931,13.3751 C47.2091,13.3751 48.2871,13.7298 49.1271,14.4391 C49.2391,14.5418 49.3184,14.6444 49.3651,14.7471 C49.4211,14.8498 49.4491,14.9711 49.4491,15.1111 C49.4491,15.3164 49.3931,15.4891 49.2811,15.6291 C49.1691,15.7691 49.0338,15.8391 48.8751,15.8391 C48.7724,15.8391 48.6791,15.8251 48.5951,15.7971 C48.5111,15.7598 48.4131,15.7038 48.3011,15.6291 C47.8904,15.3398 47.5078,15.1391 47.1531,15.0271 C46.7984,14.9058 46.3971,14.8451 45.9491,14.8451 C44.9318,14.8451 44.1618,15.1484 43.6391,15.7551 C43.1258,16.3524 42.8691,17.2438 42.8691,18.4291 C42.8691,20.8558 43.9331,22.0691 46.0611,22.0691 C46.6958,22.0691 47.3304,21.9804 47.9651,21.8031 L47.9651,19.3251 L46.3831,19.3251 C46.1591,19.3251 45.9818,19.2691 45.8511,19.1571 C45.7298,19.0451 45.6691,18.8864 45.6691,18.6811 C45.6691,18.4758 45.7298,18.3171 45.8511,18.2051 C45.9818,18.0931 46.1591,18.0371 46.3831,18.0371 L48.8611,18.0371 Z M54.6787,23.4831 C53.9787,23.4831 53.3627,23.3384 52.8307,23.0491 C52.308,22.7598 51.902,22.3444 51.6127,21.8031 C51.3233,21.2618 51.1787,20.6318 51.1787,19.9131 C51.1787,19.1944 51.3233,18.5691 51.6127,18.0371 C51.902,17.4958 52.308,17.0804 52.8307,16.7911 C53.3627,16.5018 53.9787,16.3571 54.6787,16.3571 C55.3787,16.3571 55.99,16.5018 56.5127,16.7911 C57.0447,17.0804 57.4507,17.4958 57.7307,18.0371 C58.02,18.5691 58.1647,19.1944 58.1647,19.9131 C58.1647,20.6318 58.02,21.2618 57.7307,21.8031 C57.4507,22.3444 57.0447,22.7598 56.5127,23.0491 C55.99,23.3384 55.3787,23.4831 54.6787,23.4831 Z M54.6647,22.1251 C55.234,22.1251 55.668,21.9384 55.9667,21.5651 C56.2653,21.1918 56.4147,20.6411 56.4147,19.9131 C56.4147,19.1944 56.2653,18.6484 55.9667,18.2751 C55.668,17.8924 55.2387,17.7011 54.6787,17.7011 C54.1187,17.7011 53.6847,17.8924 53.3767,18.2751 C53.078,18.6484 52.9287,19.1944 52.9287,19.9131 C52.9287,20.6411 53.078,21.1918 53.3767,21.5651 C53.6753,21.9384 54.1047,22.1251 54.6647,22.1251 Z M62.8314,23.4831 C62.1314,23.4831 61.5154,23.3384 60.9834,23.0491 C60.4607,22.7598 60.0547,22.3444 59.7654,21.8031 C59.4761,21.2618 59.3314,20.6318 59.3314,19.9131 C59.3314,19.1944 59.4761,18.5691 59.7654,18.0371 C60.0547,17.4958 60.4607,17.0804 60.9834,16.7911 C61.5154,16.5018 62.1314,16.3571 62.8314,16.3571 C63.5314,16.3571 64.1427,16.5018 64.6654,16.7911 C65.1974,17.0804 65.6034,17.4958 65.8834,18.0371 C66.1727,18.5691 66.3174,19.1944 66.3174,19.9131 C66.3174,20.6318 66.1727,21.2618 65.8834,21.8031 C65.6034,22.3444 65.1974,22.7598 64.6654,23.0491 C64.1427,23.3384 63.5314,23.4831 62.8314,23.4831 Z M62.8174,22.1251 C63.3867,22.1251 63.8207,21.9384 64.1194,21.5651 C64.4181,21.1918 64.5674,20.6411 64.5674,19.9131 C64.5674,19.1944 64.4181,18.6484 64.1194,18.2751 C63.8207,17.8924 63.3914,17.7011 62.8314,17.7011 C62.2714,17.7011 61.8374,17.8924 61.5294,18.2751 C61.2307,18.6484 61.0814,19.1944 61.0814,19.9131 C61.0814,20.6411 61.2307,21.1918 61.5294,21.5651 C61.8281,21.9384 62.2574,22.1251 62.8174,22.1251 Z M73.6581,16.3851 C73.9195,16.3851 74.1295,16.4598 74.2881,16.6091 C74.4468,16.7584 74.5261,16.9591 74.5261,17.2111 L74.5261,22.7411 C74.5261,23.8144 74.2275,24.6264 73.6301,25.1771 C73.0328,25.7278 72.1508,26.0031 70.9841,26.0031 C69.9668,26.0031 69.1175,25.8118 68.4361,25.4291 C68.0908,25.2238 67.9181,24.9764 67.9181,24.6871 C67.9181,24.4818 67.9648,24.3184 68.0581,24.1971 C68.1608,24.0758 68.2915,24.0151 68.4501,24.0151 C68.5341,24.0151 68.6368,24.0338 68.7581,24.0711 C68.8795,24.1178 69.0055,24.1691 69.1361,24.2251 C69.4721,24.3651 69.7708,24.4724 70.0321,24.5471 C70.3028,24.6218 70.6108,24.6591 70.9561,24.6591 C72.1788,24.6591 72.7901,24.0618 72.7901,22.8671 L72.7901,21.9711 C72.5848,22.3538 72.2861,22.6524 71.8941,22.8671 C71.5021,23.0724 71.0541,23.1751 70.5501,23.1751 C69.9528,23.1751 69.4208,23.0351 68.9541,22.7551 C68.4968,22.4658 68.1375,22.0644 67.8761,21.5511 C67.6148,21.0378 67.4841,20.4451 67.4841,19.7731 C67.4841,19.1011 67.6101,18.5084 67.8621,17.9951 C68.1235,17.4724 68.4875,17.0711 68.9541,16.7911 C69.4208,16.5018 69.9528,16.3571 70.5501,16.3571 C71.0541,16.3571 71.5021,16.4644 71.8941,16.6791 C72.2861,16.8844 72.5848,17.1784 72.7901,17.5611 L72.7901,17.1971 C72.7901,16.9544 72.8695,16.7584 73.0281,16.6091 C73.1868,16.4598 73.3968,16.3851 73.6581,16.3851 Z M71.0121,21.8171 C71.5721,21.8171 72.0061,21.6351 72.3141,21.2711 C72.6315,20.9071 72.7901,20.4078 72.7901,19.7731 C72.7901,19.1291 72.6315,18.6251 72.3141,18.2611 C72.0061,17.8971 71.5721,17.7151 71.0121,17.7151 C70.4615,17.7151 70.0275,17.8971 69.7101,18.2611 C69.3928,18.6251 69.2341,19.1291 69.2341,19.7731 C69.2341,20.4078 69.3928,20.9071 69.7101,21.2711 C70.0275,21.6351 70.4615,21.8171 71.0121,21.8171 Z M77.3067,23.4551 C77.0547,23.4551 76.8447,23.3851 76.6767,23.2451 C76.518,23.0958 76.4387,22.8858 76.4387,22.6151 L76.4387,14.2571 C76.4387,13.9864 76.518,13.7811 76.6767,13.6411 C76.8447,13.5011 77.0547,13.4311 77.3067,13.4311 C77.5587,13.4311 77.7687,13.5011 77.9367,13.6411 C78.1047,13.7811 78.1887,13.9864 78.1887,14.2571 L78.1887,22.6151 C78.1887,22.8858 78.1047,23.0958 77.9367,23.2451 C77.7687,23.3851 77.5587,23.4551 77.3067,23.4551 Z M85.5114,21.4951 C85.6701,21.4951 85.7961,21.5558 85.8894,21.6771 C85.9921,21.7984 86.0434,21.9618 86.0434,22.1671 C86.0434,22.4564 85.8707,22.6991 85.5254,22.8951 C85.2081,23.0724 84.8487,23.2171 84.4474,23.3291 C84.0461,23.4318 83.6634,23.4831 83.2994,23.4831 C82.1981,23.4831 81.3254,23.1658 80.6814,22.5311 C80.0374,21.8964 79.7154,21.0284 79.7154,19.9271 C79.7154,19.2271 79.8554,18.6064 80.1354,18.0651 C80.4154,17.5238 80.8074,17.1038 81.3114,16.8051 C81.8247,16.5064 82.4034,16.3571 83.0474,16.3571 C83.6634,16.3571 84.2001,16.4924 84.6574,16.7631 C85.1147,17.0338 85.4694,17.4164 85.7214,17.9111 C85.9734,18.4058 86.0994,18.9891 86.0994,19.6611 C86.0994,20.0624 85.9221,20.2631 85.5674,20.2631 L81.4374,20.2631 C81.4934,20.9071 81.6754,21.3831 81.9834,21.6911 C82.2914,21.9898 82.7394,22.1391 83.3274,22.1391 C83.6261,22.1391 83.8874,22.1018 84.1114,22.0271 C84.3447,21.9524 84.6061,21.8498 84.8954,21.7191 C85.1754,21.5698 85.3807,21.4951 85.5114,21.4951 Z M83.0894,17.5891 C82.6134,17.5891 82.2307,17.7384 81.9414,18.0371 C81.6614,18.3358 81.4934,18.7651 81.4374,19.3251 L84.6014,19.3251 C84.5827,18.7558 84.4427,18.3264 84.1814,18.0371 C83.9201,17.7384 83.5561,17.5891 83.0894,17.5891 Z" id="Shape" fill="#FFFFFF"></path>
        </g>
    </g>
</svg>