<?xml version="1.0" encoding="UTF-8"?>
<svg width="131px" height="89px" viewBox="0 0 131 89" version="1.1" xmlns="http://www.w3.org/2000/svg" xmlns:xlink="http://www.w3.org/1999/xlink">
    <title>Group</title>
    <g id="Page-1" stroke="none" stroke-width="1" fill="none" fill-rule="evenodd">
        <g id="Group">
            <path d="M12.7354,81.9355 C12.2582,83.029 11.7214,83.9833 11.1249,84.7985 C10.5484,85.5938 9.93203,86.2698 9.27592,86.8265 C8.6397,87.3633 7.99353,87.7609 7.33743,88.0194 C6.68132,88.2778 6.0451,88.4071 5.42875,88.4071 C4.81241,88.4071 4.24577,88.2679 3.72884,87.9896 C3.23179,87.7112 2.79439,87.2937 2.41663,86.737 C2.03887,86.1803 1.7307,85.4944 1.49212,84.6792 C1.27341,83.864 1.16406,82.9097 1.16406,81.8162 C1.16406,79.9473 1.42253,78.1082 1.93946,76.2989 C2.45639,74.4698 3.18209,72.8295 4.11654,71.3781 C5.051,69.9267 6.15445,68.7637 7.4269,67.8888 C8.71923,66.9942 10.1408,66.5468 11.6916,66.5468 C12.1688,66.5468 12.626,66.6462 13.0634,66.845 C13.5008,67.0439 13.8786,67.3222 14.1967,67.6801 C14.5148,68.038 14.7634,68.4754 14.9423,68.9923 C15.1411,69.5092 15.2405,70.0858 15.2405,70.722 C15.2405,70.8413 15.2405,70.9706 15.2405,71.1097 C15.2405,71.229 15.2306,71.3583 15.2107,71.4974 L11.3039,72.5412 C11.0653,72.0442 10.787,71.7957 10.4688,71.7957 C10.1507,71.7957 9.81274,71.9845 9.45486,72.3623 C9.11687,72.7202 8.77887,73.1973 8.44088,73.7938 C8.10288,74.3704 7.77483,75.0265 7.45672,75.7621 C7.13861,76.4779 6.86026,77.2036 6.62167,77.9392 C6.38309,78.6748 6.18427,79.3806 6.02521,80.0566 C5.88604,80.7127 5.81645,81.2496 5.81645,81.6671 C5.81645,82.3033 5.89598,82.7506 6.05504,83.0091 C6.23398,83.2676 6.46262,83.3968 6.74097,83.3968 C6.95967,83.3968 7.20819,83.3173 7.48654,83.1582 C7.76489,82.9793 8.02336,82.7606 8.26194,82.5021 C8.50052,82.2238 8.71923,81.9156 8.91805,81.5776 C9.11687,81.2396 9.25604,80.9016 9.33557,80.5636 L12.7354,81.9355 Z" id="Path" fill="#000000" fill-rule="nonzero"></path>
            <path d="M29.0504,72.2132 C29.0504,73.8435 28.8715,75.3844 28.5136,76.8357 C28.1756,78.2673 27.7183,79.5894 27.1418,80.8022 C26.5652,81.9951 25.8892,83.0688 25.1138,84.0231 C24.3583,84.9575 23.563,85.7628 22.728,86.4388 C21.8929,87.0949 21.0479,87.6019 20.193,87.9597 C19.3381,88.2977 18.5229,88.4667 17.7475,88.4667 C17.0914,88.4667 16.495,88.3474 15.9581,88.1088 C15.4213,87.8504 14.9541,87.4826 14.5565,87.0054 C14.1588,86.5083 13.8407,85.8821 13.6021,85.1265 C13.3834,84.3511 13.2741,83.4266 13.2741,82.353 C13.2741,81.2396 13.4132,80.0666 13.6916,78.8339 C13.9699,77.6012 14.3477,76.3785 14.8249,75.1657 C15.302,73.9529 15.8886,72.7997 16.5844,71.7062 C17.2803,70.6127 18.0458,69.6484 18.8808,68.8134 C19.7158,67.9584 20.6105,67.2824 21.5649,66.7854 C22.5192,66.2883 23.5133,66.0398 24.5472,66.0398 C25.4419,66.0398 26.1775,66.2287 26.7541,66.6065 C27.3505,66.9643 27.8078,67.4415 28.1259,68.038 C28.4639,68.6145 28.7025,69.2706 28.8417,70.0063 C28.9809,70.7419 29.0504,71.4775 29.0504,72.2132 Z M17.7177,81.5776 C17.7177,81.7963 17.7575,82.025 17.837,82.2635 C17.9165,82.5021 18.0259,82.7109 18.165,82.8898 C18.3042,83.0688 18.4732,83.2278 18.672,83.367 C18.8907,83.4863 19.1194,83.5459 19.358,83.5459 C20.2527,83.5459 21.0479,83.2378 21.7438,82.6214 C22.4397,82.0051 23.0163,81.2496 23.4735,80.3549 C23.9308,79.4602 24.2788,78.5058 24.5173,77.4919 C24.7758,76.4779 24.905,75.5534 24.905,74.7183 C24.905,74.4797 24.8852,74.2213 24.8454,73.9429 C24.8255,73.6646 24.7659,73.4061 24.6665,73.1675 C24.5869,72.9289 24.4478,72.7301 24.2489,72.5711 C24.07,72.3921 23.8215,72.3026 23.5034,72.3026 C22.8671,72.3026 22.2806,72.4617 21.7438,72.7798 C21.207,73.0979 20.7199,73.5254 20.2825,74.0622 C19.865,74.5791 19.4971,75.1756 19.179,75.8516 C18.8609,76.5077 18.5826,77.1837 18.344,77.8796 C18.1253,78.5555 17.9662,79.2216 17.8668,79.8777 C17.7674,80.5338 17.7177,81.1004 17.7177,81.5776 Z" id="Shape" fill="#000000" fill-rule="nonzero"></path>
            <path d="M26.1625,88.1685 C27.0373,85.5242 27.8724,82.9296 28.6676,80.3847 C29.0056,79.3111 29.3536,78.1877 29.7114,77.0147 C30.0693,75.8416 30.4272,74.6785 30.7851,73.5254 C31.1429,72.3722 31.471,71.2588 31.7692,70.1852 C32.0873,69.1116 32.3657,68.1175 32.6043,67.2029 C33.6978,67.2029 34.7317,67.1433 35.7059,67.024 C36.6801,66.9047 37.7338,66.7953 38.8671,66.6959 C38.8075,67.1333 38.7379,67.6304 38.6583,68.1871 C38.5987,68.7239 38.5192,69.2905 38.4198,69.887 C38.3402,70.4834 38.2508,71.0998 38.1514,71.736 C38.0519,72.3722 37.9327,73.1874 37.7935,74.1815 C37.6543,75.1756 37.4654,76.4182 37.2268,77.9094 L37.6145,77.9094 C38.1911,76.3983 38.6683,75.1458 39.046,74.1517 C39.4238,73.1377 39.732,72.3126 39.9706,71.6764 C40.2091,71.0401 40.4477,70.4238 40.6863,69.8273 C40.9448,69.211 41.1834,68.6344 41.4021,68.0976 C41.6406,67.5409 41.8594,67.0538 42.0582,66.6363 C42.5552,66.5965 43.0224,66.5468 43.4599,66.4872 C43.8973,66.4275 44.3347,66.3679 44.7721,66.3082 C45.2095,66.2287 45.6469,66.1591 46.0843,66.0995 C46.5416,66.0199 47.0386,65.9305 47.5754,65.8311 C47.3766,66.9842 47.1877,68.1672 47.0088,69.38 C46.8299,70.5928 46.6708,71.8056 46.5316,73.0184 C46.3924,74.2113 46.2533,75.3943 46.1141,76.5673 C45.9948,77.7404 45.8855,78.8538 45.786,79.9075 C45.5475,82.3729 45.3387,84.7786 45.1598,87.1247 L39.9706,88.0492 C39.9706,87.9498 39.9805,87.6814 40.0004,87.244 C40.0401,86.8066 40.0799,86.2698 40.1197,85.6335 C40.1793,84.9973 40.2489,84.2915 40.3284,83.5161 C40.4278,82.7407 40.5173,81.9653 40.5968,81.1899 C40.6963,80.4145 40.7957,79.6689 40.8951,78.9532 C40.9945,78.2175 41.0939,77.5913 41.1933,77.0743 L40.9249,77.0743 C40.6465,77.9094 40.3384,78.7941 40.0004,79.7286 C39.6624,80.6432 39.3145,81.5776 38.9566,82.5319 C38.6186,83.4863 38.2806,84.4207 37.9426,85.3353 C37.6046,86.2499 37.3064,87.1247 37.0479,87.9597 C36.352,87.9796 35.7556,88.0094 35.2585,88.0492 C34.7615,88.0691 34.1849,88.0989 33.5288,88.1387 L34.4831,77.0743 L34.0358,77.0743 C33.996,77.3328 33.8966,77.7702 33.7376,78.3865 C33.5785,78.983 33.3896,79.6789 33.1709,80.4742 C32.9721,81.2496 32.7534,82.0647 32.5148,82.9196 C32.2762,83.7547 32.0476,84.54 31.8289,85.2757 C31.6301,85.9914 31.4611,86.5879 31.3219,87.065 C31.1827,87.5223 31.1032,87.7808 31.0833,87.8404 L26.1625,88.1685 Z" id="Path" fill="#000000" fill-rule="nonzero"></path>
            <path d="M50.5917,87.751 C50.4128,87.751 50.0549,87.7808 49.5181,87.8404 C49.0012,87.8802 48.4644,87.9398 47.9077,88.0194 C47.351,88.079 46.844,88.1387 46.3867,88.1983 C45.9493,88.258 45.7107,88.2977 45.671,88.3176 C45.8698,87.4627 46.0686,86.5183 46.2674,85.4844 C46.4861,84.4307 46.7048,83.3372 46.9235,82.2039 C47.1422,81.0507 47.351,79.8876 47.5498,78.7146 C47.7486,77.5416 47.9375,76.4083 48.1164,75.3148 C48.534,72.7699 48.9515,70.1554 49.369,67.4713 L54.0214,66.7257 C53.5641,69.3899 53.1168,72.0044 52.6794,74.5692 C52.5004,75.6627 52.3115,76.796 52.1127,77.969 C51.9338,79.1421 51.7449,80.3052 51.5461,81.4583 C51.3671,82.6115 51.1982,83.7348 51.0391,84.8283 C50.88,85.9019 50.7309,86.8762 50.5917,87.751 Z" id="Path" fill="#000000" fill-rule="nonzero"></path>
            <path d="M64.2849,81.9355 C63.8078,83.029 63.271,83.9833 62.6745,84.7985 C62.0979,85.5938 61.4816,86.2698 60.8255,86.8265 C60.1892,87.3633 59.5431,87.7609 58.887,88.0194 C58.2309,88.2778 57.5946,88.4071 56.9783,88.4071 C56.362,88.4071 55.7953,88.2679 55.2784,87.9896 C54.7813,87.7112 54.3439,87.2937 53.9662,86.737 C53.5884,86.1803 53.2802,85.4944 53.0417,84.6792 C52.823,83.864 52.7136,82.9097 52.7136,81.8162 C52.7136,79.9473 52.9721,78.1082 53.489,76.2989 C54.0059,74.4698 54.7316,72.8295 55.6661,71.3781 C56.6005,69.9267 57.704,68.7637 58.9764,67.8888 C60.2688,66.9942 61.6903,66.5468 63.2411,66.5468 C63.7183,66.5468 64.1756,66.6462 64.613,66.845 C65.0504,67.0439 65.4281,67.3222 65.7463,67.6801 C66.0644,68.038 66.3129,68.4754 66.4918,68.9923 C66.6907,69.5092 66.7901,70.0858 66.7901,70.722 C66.7901,70.8413 66.7901,70.9706 66.7901,71.1097 C66.7901,71.229 66.7801,71.3583 66.7602,71.4974 L62.8534,72.5412 C62.6148,72.0442 62.3365,71.7957 62.0184,71.7957 C61.7003,71.7957 61.3623,71.9845 61.0044,72.3623 C60.6664,72.7202 60.3284,73.1973 59.9904,73.7938 C59.6524,74.3704 59.3244,75.0265 59.0063,75.7621 C58.6882,76.4779 58.4098,77.2036 58.1712,77.9392 C57.9326,78.6748 57.7338,79.3806 57.5748,80.0566 C57.4356,80.7127 57.366,81.2496 57.366,81.6671 C57.366,82.3033 57.4455,82.7506 57.6046,83.0091 C57.7835,83.2676 58.0122,83.3968 58.2905,83.3968 C58.5092,83.3968 58.7577,83.3173 59.0361,83.1582 C59.3144,82.9793 59.5729,82.7606 59.8115,82.5021 C60.0501,82.2238 60.2688,81.9156 60.4676,81.5776 C60.6664,81.2396 60.8056,80.9016 60.8851,80.5636 L64.2849,81.9355 Z" id="Path" fill="#000000" fill-rule="nonzero"></path>
            <path d="M82.9355,80.9811 C82.9355,82.0945 82.7168,83.1085 82.2794,84.0231 C81.8619,84.9178 81.2853,85.6932 80.5497,86.3493 C79.8339,87.0054 78.979,87.5124 77.9849,87.8703 C77.0107,88.2281 75.9569,88.4071 74.8236,88.4071 C74.0284,88.4071 73.2331,88.1983 72.4378,87.7808 C71.6425,87.3434 70.8771,86.6575 70.1414,85.723 L72.3483,81.3987 C72.4875,81.6571 72.6963,81.9255 72.9746,82.2039 C73.253,82.4624 73.5611,82.691 73.8991,82.8898 C74.257,83.0886 74.6049,83.2576 74.9429,83.3968 C75.3008,83.5161 75.6189,83.5757 75.8973,83.5757 C76.1359,83.5757 76.3844,83.536 76.6428,83.4565 C76.9013,83.3769 77.1399,83.2576 77.3586,83.0986 C77.5773,82.9395 77.7463,82.7606 77.8656,82.5618 C78.0048,82.3431 78.0743,82.0945 78.0743,81.8162 C78.0743,81.339 77.9153,80.9016 77.5972,80.504 C77.299,80.0865 76.9212,79.6988 76.4639,79.3409 C76.0066,78.9631 75.5096,78.5854 74.9728,78.2076 C74.4359,77.8298 73.9389,77.4322 73.4816,77.0147 C73.0442,76.5972 72.6665,76.1299 72.3483,75.613 C72.0302,75.0961 71.8712,74.5195 71.8712,73.8833 C71.8712,72.8494 72.1793,71.8851 72.7957,70.9904 C73.412,70.0957 74.1775,69.3303 75.092,68.6941 C76.0265,68.038 77.0405,67.521 78.134,67.1433 C79.2275,66.7655 80.2614,66.5766 81.2356,66.5766 C81.7724,66.5766 82.2794,66.6462 82.7566,66.7854 C83.2337,66.9047 83.6413,67.1134 83.9793,67.4117 C84.3372,67.69 84.6155,68.0479 84.8144,68.4853 C85.0331,68.9227 85.1424,69.4695 85.1424,70.1256 C85.1424,70.4039 85.1126,70.6823 85.0529,70.9606 C85.0132,71.239 84.9734,71.5372 84.9336,71.8553 L80.6093,73.1079 C80.6491,72.9488 80.6789,72.7898 80.6988,72.6307 C80.7385,72.4716 80.7584,72.3126 80.7584,72.1535 C80.7584,71.5571 80.6491,71.1296 80.4304,70.8711 C80.2315,70.5928 79.9631,70.4536 79.6251,70.4536 C79.4661,70.4536 79.2673,70.5133 79.0287,70.6326 C78.81,70.7519 78.5813,70.9109 78.3428,71.1097 C78.1241,71.2887 77.9352,71.5074 77.7761,71.7658 C77.6171,72.0243 77.5375,72.3026 77.5375,72.6009 C77.5375,73.078 77.6668,73.4757 77.9252,73.7938 C78.2036,74.1119 78.5416,74.4101 78.9392,74.6885 C79.3369,74.9668 79.7643,75.2551 80.2216,75.5534 C80.6988,75.8317 81.1362,76.1995 81.5338,76.6568 C81.9315,77.1141 82.2595,77.6907 82.518,78.3865 C82.7963,79.0625 82.9355,79.9274 82.9355,80.9811 Z" id="Path" fill="#000000" fill-rule="nonzero"></path>
            <path d="M93.5134,87.751 C93.0163,87.8305 92.4695,87.92 91.8731,88.0194 C91.2766,88.1188 90.7398,88.2083 90.2626,88.2878 C90.3422,87.6317 90.4217,86.9855 90.5012,86.3493 C90.5609,85.7926 90.6106,85.2359 90.6503,84.6792 C90.71,84.1225 90.7597,83.6453 90.7995,83.2477 L88.2049,83.2477 L87.0119,87.5422 C86.5745,87.6019 86.0576,87.6714 85.4611,87.751 C84.8647,87.8106 84.308,87.8703 83.791,87.9299 C83.1548,88.0094 82.5285,88.089 81.9122,88.1685 C82.7075,85.5242 83.4928,82.9196 84.2682,80.3549 C84.5863,79.2812 84.9144,78.1579 85.2524,76.9849 C85.6103,75.8118 85.9582,74.6487 86.2962,73.4956 C86.6541,72.3225 86.9921,71.1992 87.3102,70.1256 C87.6283,69.0519 87.9066,68.0678 88.1452,67.1731 C89.4972,67.0737 90.869,66.9544 92.2608,66.8152 C93.6724,66.676 95.0443,66.4872 96.3764,66.2486 C96.3167,66.8848 96.2471,67.6801 96.1676,68.6344 C96.108,69.5689 96.0483,70.5928 95.9887,71.7062 C95.929,72.8196 95.8694,73.9827 95.8097,75.1955 C95.7501,76.4083 95.6904,77.6012 95.6308,78.7742 C95.5314,81.518 95.422,84.4307 95.3027,87.5124 C94.7063,87.6118 94.1098,87.6913 93.5134,87.751 Z M88.9206,80.2654 C89.0001,80.2654 89.1393,80.2654 89.3381,80.2654 C89.5568,80.2455 89.7755,80.2356 89.9942,80.2356 C90.2328,80.2157 90.4515,80.2057 90.6503,80.2057 C90.8492,80.1859 90.9883,80.166 91.0679,80.1461 C91.0679,80.0268 91.0778,79.828 91.0977,79.5496 C91.1375,79.2514 91.1673,78.9234 91.1872,78.5655 C91.2269,78.1877 91.2667,77.7801 91.3064,77.3427 C91.3462,76.9053 91.386,76.4779 91.4257,76.0603 C91.5053,75.0464 91.6047,73.9529 91.724,72.7798 L91.9029,70.1852 L91.4556,70.215 L90.7696,72.7798 L88.9206,80.2654 Z" id="Shape" fill="#000000" fill-rule="nonzero"></path>
            <path d="M103.672,87.3931 C103.055,87.3931 102.399,87.413 101.703,87.4527 C101.027,87.4925 100.341,87.5522 99.6455,87.6317 C98.9496,87.7112 98.2637,87.8206 97.5877,87.9597 C96.9316,88.079 96.3351,88.2281 95.7983,88.4071 C95.9176,87.5124 96.0568,86.5183 96.2158,85.4248 C96.3749,84.3313 96.5538,83.198 96.7526,82.025 C96.9713,80.8519 97.1801,79.6689 97.3789,78.476 C97.5976,77.2831 97.8163,76.1399 98.035,75.0464 C98.5321,72.4418 99.059,69.7876 99.6157,67.0836 L104.835,66.3977 C104.298,68.704 103.781,70.9507 103.284,73.1377 C103.065,74.0721 102.846,75.0464 102.628,76.0603 C102.409,77.0544 102.2,78.0287 102.001,78.983 C101.803,79.9373 101.624,80.8619 101.465,81.7565 C101.306,82.6512 101.176,83.4465 101.077,84.1424 C101.574,84.1026 102.101,84.0827 102.658,84.0827 C103.234,84.0629 103.741,84.0529 104.179,84.0529 C104.198,84.4307 104.228,84.8084 104.268,85.1862 C104.308,85.5441 104.348,85.8721 104.387,86.1704 C104.447,86.4686 104.487,86.737 104.507,86.9756 C104.546,87.1943 104.576,87.3434 104.596,87.4229 C104.437,87.4229 104.278,87.4229 104.119,87.4229 C103.98,87.403 103.831,87.3931 103.672,87.3931 Z" id="Path" fill="#000000" fill-rule="nonzero"></path>
            <path d="M104.678,88.3773 L108.585,67.1731 L118.009,66.3679 C117.87,66.8053 117.751,67.2526 117.651,67.7099 C117.552,68.0877 117.453,68.4853 117.353,68.9028 C117.274,69.3005 117.204,69.6583 117.144,69.9765 C116.946,69.9963 116.657,70.0162 116.279,70.0361 C115.922,70.0361 115.534,70.046 115.116,70.0659 C114.699,70.0659 114.271,70.0659 113.834,70.0659 C113.416,70.0659 113.049,70.0659 112.731,70.0659 L111.687,75.4042 C112.303,75.3645 112.88,75.3347 113.416,75.3148 C113.854,75.2949 114.301,75.285 114.759,75.285 C115.216,75.285 115.554,75.275 115.773,75.2551 C115.693,75.8118 115.613,76.3586 115.534,76.8954 C115.474,77.4322 115.395,77.979 115.295,78.5357 C115.097,78.5555 114.768,78.5754 114.311,78.5953 C113.874,78.5953 113.426,78.6052 112.969,78.6251 C112.452,78.645 111.886,78.6649 111.269,78.6848 L110.255,84.1722 L114.609,83.4863 L114.311,86.8861 L104.678,88.3773 Z" id="Path" fill="#000000" fill-rule="nonzero"></path>
            <path d="M127.816,80.9811 C127.816,82.0945 127.597,83.1085 127.16,84.0231 C126.742,84.9178 126.165,85.6932 125.43,86.3493 C124.714,87.0054 123.859,87.5124 122.865,87.8703 C121.891,88.2281 120.837,88.4071 119.704,88.4071 C118.909,88.4071 118.113,88.1983 117.318,87.7808 C116.523,87.3434 115.757,86.6575 115.022,85.723 L117.228,81.3987 C117.368,81.6571 117.576,81.9255 117.855,82.2039 C118.133,82.4624 118.441,82.691 118.779,82.8898 C119.137,83.0886 119.485,83.2576 119.823,83.3968 C120.181,83.5161 120.499,83.5757 120.777,83.5757 C121.016,83.5757 121.265,83.536 121.523,83.4565 C121.781,83.3769 122.02,83.2576 122.239,83.0986 C122.457,82.9395 122.626,82.7606 122.746,82.5618 C122.885,82.3431 122.954,82.0945 122.954,81.8162 C122.954,81.339 122.795,80.9016 122.477,80.504 C122.179,80.0865 121.801,79.6988 121.344,79.3409 C120.887,78.9631 120.39,78.5854 119.853,78.2076 C119.316,77.8298 118.819,77.4322 118.362,77.0147 C117.924,76.5972 117.547,76.1299 117.228,75.613 C116.91,75.0961 116.751,74.5195 116.751,73.8833 C116.751,72.8494 117.059,71.8851 117.676,70.9904 C118.292,70.0957 119.058,69.3303 119.972,68.6941 C120.907,68.038 121.921,67.521 123.014,67.1433 C124.108,66.7655 125.142,66.5766 126.116,66.5766 C126.653,66.5766 127.16,66.6462 127.637,66.7854 C128.114,66.9047 128.521,67.1134 128.859,67.4117 C129.217,67.69 129.496,68.0479 129.694,68.4853 C129.913,68.9227 130.023,69.4695 130.023,70.1256 C130.023,70.4039 129.993,70.6823 129.933,70.9606 C129.893,71.239 129.854,71.5372 129.814,71.8553 L125.489,73.1079 C125.529,72.9488 125.559,72.7898 125.579,72.6307 C125.619,72.4716 125.639,72.3126 125.639,72.1535 C125.639,71.5571 125.529,71.1296 125.311,70.8711 C125.112,70.5928 124.843,70.4536 124.505,70.4536 C124.346,70.4536 124.147,70.5133 123.909,70.6326 C123.69,70.7519 123.461,70.9109 123.223,71.1097 C123.004,71.2887 122.815,71.5074 122.656,71.7658 C122.497,72.0243 122.418,72.3026 122.418,72.6009 C122.418,73.078 122.547,73.4757 122.805,73.7938 C123.084,74.1119 123.422,74.4101 123.819,74.6885 C124.217,74.9668 124.644,75.2551 125.102,75.5534 C125.579,75.8317 126.016,76.1995 126.414,76.6568 C126.812,77.1141 127.14,77.6907 127.398,78.3865 C127.676,79.0625 127.816,79.9274 127.816,80.9811 Z" id="Path" fill="#000000" fill-rule="nonzero"></path>
            <path d="M131,0 L0,0 L0,58.8449 L131,58.8449 L131,0 Z M107.842,8.41212 L107.842,16.069 L101.192,16.069 L101.192,25.5569 L107.843,25.5569 L107.843,33.2257 L101.192,33.2257 L101.192,42.858 L107.843,42.858 L107.843,50.4118 L93.8326,50.4118 L93.8326,12.3422 L87.9289,50.4116 L79.2891,50.4385 C79.2891,50.4385 74.8825,23.4782 74.874,23.4193 L74.874,23.4222 C75.5863,27.7771 72.9098,32.3294 70.5393,34.122 L75.2169,50.4116 L75.2082,50.4116 L75.1953,50.4116 L75.1982,50.4205 L75.1897,50.4205 L67.9425,50.4205 L67.9338,50.4205 L64.3693,36.522 L62.6475,36.7784 L62.6475,50.4116 L62.6388,50.4116 L62.63,50.4116 L62.63,50.4205 L62.6186,50.4205 L48.574,50.4116 L47.7088,43.9489 L41.9493,43.9489 L41.0812,50.4116 L26.7757,50.4116 L26.7757,30.1683 L23.4477,50.4116 L19.5026,50.4116 L16.1272,30.1683 L16.1272,50.4121 L8.70666,50.4121 L8.70666,8.41224 L18.1298,8.41224 L21.4376,30.112 L24.8336,8.412 L34.2537,8.412 L34.2508,47.0389 L39.9177,8.4064 L49.7604,8.41224 L55.2383,45.6974 L55.2671,8.41224 C55.2671,8.41224 62.7482,8.40926 62.7928,8.41224 C69.5642,8.41224 72.6412,13.4893 73.5093,15.2379 L72.6673,8.41224 L80.1828,8.41224 L83.5743,33.9923 L87.0017,8.41212 L107.842,8.41212 Z M44.8608,19.333 L42.8234,37.2887 L46.9762,37.2887 L44.8608,19.333 Z M62.6472,29.4225 C63.2268,29.4225 63.8223,29.2809 64.3933,28.9978 C66.1236,28.1399 67.5972,25.9962 67.5972,22.5939 C67.5972,16.0898 63.2644,15.9071 62.6833,15.9100664 C62.6689,15.9100664 62.6572,15.9128 62.6472,15.9128 L62.6472,29.4225 Z M122.794,50.4058 L122.794,42.8522 L116.485,42.8522 L116.485,8.4064 L109.127,8.4064 L109.127,50.4058 L122.794,50.4058 Z" id="Shape" fill="#DC042B"></path>
        </g>
    </g>
</svg>