<?xml version="1.0" encoding="UTF-8"?>
<svg width="62px" height="42px" viewBox="0 0 62 42" version="1.1" xmlns="http://www.w3.org/2000/svg" xmlns:xlink="http://www.w3.org/1999/xlink">
    <title>Group</title>
    <g id="Page-1" stroke="none" stroke-width="1" fill="none" fill-rule="evenodd">
        <g id="Group">
            <path d="M6.02729,38.7792 C5.80145,39.2967 5.54739,39.7484 5.26509,40.1342 C4.99221,40.5106 4.70051,40.8305 4.38998,41.094 C4.08887,41.348 3.78305,41.5362 3.47253,41.6586 C3.162,41.7809 2.86089,41.8421 2.56918,41.8421 C2.27748,41.8421 2.0093,41.7762 1.76465,41.6445 C1.5294,41.5127 1.32239,41.3151 1.1436,41.0516 C0.964813,40.7882 0.818961,40.4635 0.706043,40.0777 C0.602535,39.6919 0.550781,39.2403 0.550781,38.7227 C0.550781,37.8382 0.673109,36.9678 0.917764,36.1115 C1.16242,35.2458 1.50588,34.4695 1.94814,33.7826 C2.3904,33.0956 2.91264,32.5452 3.51487,32.1311 C4.12651,31.7077 4.79931,31.496 5.53327,31.496 C5.75911,31.496 5.97553,31.543 6.18255,31.6371 C6.38957,31.7312 6.56835,31.863 6.71891,32.0323 C6.86947,32.2017 6.98709,32.4087 7.07178,32.6534 C7.16587,32.898 7.21292,33.1709 7.21292,33.472 C7.21292,33.5285 7.21292,33.5897 7.21292,33.6555 C7.21292,33.712 7.20822,33.7732 7.19881,33.839 L5.34978,34.333 C5.23686,34.0978 5.10513,33.9802 4.95457,33.9802 C4.80401,33.9802 4.64405,34.0696 4.47467,34.2483 C4.3147,34.4177 4.15474,34.6436 3.99477,34.9259 C3.8348,35.1987 3.67954,35.5093 3.52898,35.8574 C3.37843,36.1962 3.24669,36.5396 3.13377,36.8878 C3.02086,37.236 2.92676,37.57 2.85148,37.8899 C2.78561,38.2005 2.75268,38.4545 2.75268,38.6521 C2.75268,38.9533 2.79032,39.165 2.86559,39.2873 C2.95028,39.4096 3.05849,39.4708 3.19023,39.4708 C3.29374,39.4708 3.41136,39.4332 3.5431,39.3579 C3.67484,39.2732 3.79716,39.1697 3.91008,39.0473 C4.023,38.9156 4.12651,38.7698 4.22061,38.6098 C4.3147,38.4498 4.38057,38.2899 4.41821,38.1299 L6.02729,38.7792 Z" id="Path" fill="#FFFFFF" fill-rule="nonzero"></path>
            <path d="M13.7489,34.1778 C13.7489,34.9494 13.6642,35.6786 13.4949,36.3656 C13.3349,37.0431 13.1185,37.6688 12.8456,38.2428 C12.5727,38.8074 12.2528,39.3155 11.8858,39.7672 C11.5282,40.2095 11.1518,40.5906 10.7566,40.9105 C10.3614,41.221 9.96147,41.461 9.55685,41.6303 C9.15223,41.7903 8.76642,41.8703 8.39944,41.8703 C8.08892,41.8703 7.80662,41.8138 7.55256,41.7009 C7.29849,41.5786 7.07736,41.4045 6.88917,41.1787 C6.70097,40.9434 6.55041,40.647 6.4375,40.2894 C6.33399,39.9225 6.28224,39.4849 6.28224,38.9768 C6.28224,38.4498 6.3481,37.8946 6.47984,37.3112 C6.61158,36.7278 6.79036,36.1491 7.0162,35.5751 C7.24204,35.0011 7.51962,34.4554 7.84897,33.9378 C8.17831,33.4203 8.54059,32.9639 8.9358,32.5687 C9.33101,32.1641 9.75445,31.8441 10.2061,31.6089 C10.6578,31.3737 11.1283,31.256 11.6176,31.256 C12.041,31.256 12.3892,31.3454 12.6621,31.5242 C12.9444,31.6936 13.1608,31.9194 13.3114,32.2017 C13.4713,32.4746 13.5842,32.7851 13.6501,33.1333 C13.716,33.4814 13.7489,33.8296 13.7489,34.1778 Z M8.38533,38.6098 C8.38533,38.7133 8.40415,38.8215 8.44179,38.9344 C8.47942,39.0473 8.53118,39.1462 8.59705,39.2308 C8.66292,39.3155 8.7429,39.3908 8.837,39.4567 C8.94051,39.5131 9.04872,39.5414 9.16164,39.5414 C9.58508,39.5414 9.96147,39.3955 10.2908,39.1038 C10.6202,38.8121 10.893,38.4545 11.1095,38.0311 C11.3259,37.6076 11.4906,37.156 11.6035,36.6761 C11.7258,36.1962 11.787,35.7586 11.787,35.3634 C11.787,35.2505 11.7776,35.1282 11.7587,34.9964 C11.7493,34.8647 11.7211,34.7424 11.6741,34.6294 C11.6364,34.5165 11.5705,34.4224 11.4764,34.3472 C11.3918,34.2625 11.2741,34.2201 11.1236,34.2201 C10.8225,34.2201 10.5449,34.2954 10.2908,34.446 C10.0367,34.5965 9.80621,34.7988 9.59919,35.0529 C9.40159,35.2975 9.2275,35.5798 9.07695,35.8998 C8.92639,36.2103 8.79465,36.5302 8.68174,36.8596 C8.57823,37.1795 8.50295,37.4947 8.4559,37.8053 C8.40885,38.1158 8.38533,38.384 8.38533,38.6098 Z" id="Shape" fill="#FFFFFF" fill-rule="nonzero"></path>
            <path d="M12.3821,41.7291 C12.7961,40.4776 13.1913,39.2497 13.5677,38.0452 C13.7277,37.5371 13.8924,37.0054 14.0618,36.4502 C14.2311,35.8951 14.4005,35.3446 14.5699,34.7988 C14.7393,34.2531 14.8945,33.7261 15.0357,33.218 C15.1862,32.7098 15.318,32.2394 15.4309,31.8065 C15.9484,31.8065 16.4377,31.7783 16.8988,31.7218 C17.3599,31.6654 17.8586,31.6136 18.395,31.5666 C18.3667,31.7736 18.3338,32.0088 18.2962,32.2723 C18.2679,32.5264 18.2303,32.7945 18.1833,33.0768 C18.1456,33.3591 18.1033,33.6508 18.0562,33.9519 C18.0092,34.2531 17.9527,34.6389 17.8868,35.1093 C17.821,35.5798 17.7316,36.1679 17.6187,36.8737 L17.8022,36.8737 C18.075,36.1585 18.3009,35.5657 18.4797,35.0952 C18.6584,34.6153 18.8043,34.2248 18.9172,33.9237 C19.0301,33.6226 19.1431,33.3309 19.256,33.0486 C19.3783,32.7569 19.4912,32.484 19.5947,32.2299 C19.7076,31.9665 19.8111,31.7359 19.9052,31.5383 C20.1405,31.5195 20.3616,31.496 20.5686,31.4678 C20.7757,31.4395 20.9827,31.4113 21.1897,31.3831 C21.3967,31.3454 21.6037,31.3125 21.8107,31.2843 C22.0272,31.2466 22.2624,31.2043 22.5165,31.1572 C22.4224,31.703 22.333,32.2629 22.2483,32.8369 C22.1636,33.4109 22.0883,33.9849 22.0225,34.5589 C21.9566,35.1235 21.8907,35.6833 21.8248,36.2385 C21.7684,36.7937 21.7166,37.3207 21.6696,37.8194 C21.5567,38.9862 21.4579,40.1248 21.3732,41.2351 L18.9172,41.6727 C18.9172,41.6256 18.9219,41.4986 18.9313,41.2916 C18.9501,41.0846 18.969,40.8305 18.9878,40.5294 C19.016,40.2283 19.049,39.8942 19.0866,39.5273 C19.1336,39.1603 19.176,38.7933 19.2136,38.4263 C19.2607,38.0593 19.3077,37.7065 19.3548,37.3677 C19.4018,37.0195 19.4489,36.7231 19.4959,36.4785 L19.3689,36.4785 C19.2371,36.8737 19.0913,37.2924 18.9313,37.7347 C18.7714,38.1675 18.6067,38.6098 18.4373,39.0615 C18.2773,39.5131 18.1174,39.9554 17.9574,40.3882 C17.7974,40.8211 17.6563,41.2351 17.534,41.6303 C17.2046,41.6398 16.9223,41.6539 16.6871,41.6727 C16.4518,41.6821 16.179,41.6962 15.8684,41.715 L16.3201,36.4785 L16.1084,36.4785 C16.0896,36.6008 16.0425,36.8078 15.9672,37.0995 C15.892,37.3818 15.8026,37.7112 15.6991,38.0875 C15.605,38.4545 15.5015,38.8403 15.3885,39.245 C15.2756,39.6402 15.1674,40.0119 15.0639,40.36 C14.9698,40.6988 14.8898,40.9811 14.8239,41.2069 C14.7581,41.4233 14.7204,41.5457 14.711,41.5739 L12.3821,41.7291 Z" id="Path" fill="#FFFFFF" fill-rule="nonzero"></path>
            <path d="M23.944,41.5315 C23.8593,41.5315 23.69,41.5457 23.4359,41.5739 C23.1913,41.5927 22.9372,41.6209 22.6737,41.6586 C22.4102,41.6868 22.1703,41.715 21.9539,41.7433 C21.7468,41.7715 21.6339,41.7903 21.6151,41.7997 C21.7092,41.3951 21.8033,40.9481 21.8974,40.4588 C22.0009,39.9601 22.1044,39.4426 22.2079,38.9062 C22.3114,38.3604 22.4102,37.81 22.5043,37.2548 C22.5984,36.6996 22.6878,36.1632 22.7725,35.6457 C22.9701,34.4412 23.1677,33.2039 23.3653,31.9335 L25.5672,31.5807 C25.3508,32.8416 25.1391,34.079 24.9321,35.2928 C24.8474,35.8104 24.758,36.3467 24.6639,36.9019 C24.5792,37.4571 24.4898,38.0076 24.3957,38.5533 C24.311,39.0991 24.231,39.6308 24.1558,40.1483 C24.0805,40.6564 24.0099,41.1175 23.944,41.5315 Z" id="Path" fill="#FFFFFF" fill-rule="nonzero"></path>
            <path d="M30.4248,38.7792 C30.1989,39.2967 29.9449,39.7484 29.6626,40.1342 C29.3897,40.5106 29.098,40.8305 28.7875,41.094 C28.4864,41.348 28.1805,41.5362 27.87,41.6586 C27.5595,41.7809 27.2584,41.8421 26.9667,41.8421 C26.675,41.8421 26.4068,41.7762 26.1621,41.6445 C25.9269,41.5127 25.7199,41.3151 25.5411,41.0516 C25.3623,40.7882 25.2165,40.4635 25.1035,40.0777 C25,39.6919 24.9483,39.2403 24.9483,38.7227 C24.9483,37.8382 25.0706,36.9678 25.3153,36.1115 C25.5599,35.2458 25.9034,34.4695 26.3456,33.7826 C26.7879,33.0956 27.3101,32.5452 27.9124,32.1311 C28.524,31.7077 29.1968,31.496 29.9308,31.496 C30.1566,31.496 30.373,31.543 30.58,31.6371 C30.7871,31.7312 30.9658,31.863 31.1164,32.0323 C31.267,32.2017 31.3846,32.4087 31.4693,32.6534 C31.5634,32.898 31.6104,33.1709 31.6104,33.472 C31.6104,33.5285 31.6104,33.5897 31.6104,33.6555 C31.6104,33.712 31.6057,33.7732 31.5963,33.839 L29.7473,34.333 C29.6344,34.0978 29.5026,33.9802 29.3521,33.9802 C29.2015,33.9802 29.0415,34.0696 28.8722,34.2483 C28.7122,34.4177 28.5522,34.6436 28.3923,34.9259 C28.2323,35.1987 28.077,35.5093 27.9265,35.8574 C27.7759,36.1962 27.6442,36.5396 27.5313,36.8878 C27.4183,37.236 27.3243,37.57 27.249,37.8899 C27.1831,38.2005 27.1502,38.4545 27.1502,38.6521 C27.1502,38.9533 27.1878,39.165 27.2631,39.2873 C27.3478,39.4096 27.456,39.4708 27.5877,39.4708 C27.6912,39.4708 27.8089,39.4332 27.9406,39.3579 C28.0723,39.2732 28.1947,39.1697 28.3076,39.0473 C28.4205,38.9156 28.524,38.7698 28.6181,38.6098 C28.7122,38.4498 28.7781,38.2899 28.8157,38.1299 L30.4248,38.7792 Z" id="Path" fill="#FFFFFF" fill-rule="nonzero"></path>
            <path d="M39.2518,38.3275 C39.2518,38.8544 39.1483,39.3343 38.9412,39.7672 C38.7436,40.1906 38.4708,40.5576 38.1226,40.8681 C37.7838,41.1787 37.3792,41.4186 36.9087,41.588 C36.4476,41.7574 35.9489,41.8421 35.4126,41.8421 C35.0362,41.8421 34.6598,41.7433 34.2834,41.5457 C33.907,41.3386 33.5447,41.014 33.1966,40.5717 L34.241,38.5251 C34.3069,38.6474 34.4057,38.7745 34.5375,38.9062 C34.6692,39.0285 34.815,39.1367 34.975,39.2308 C35.1444,39.3249 35.3091,39.4049 35.469,39.4708 C35.6384,39.5272 35.789,39.5555 35.9207,39.5555 C36.0336,39.5555 36.1512,39.5367 36.2736,39.499 C36.3959,39.4614 36.5088,39.4049 36.6123,39.3296 C36.7158,39.2544 36.7958,39.1697 36.8523,39.0756 C36.9181,38.9721 36.9511,38.8544 36.9511,38.7227 C36.9511,38.4969 36.8758,38.2899 36.7252,38.1017 C36.5841,37.9041 36.4053,37.7206 36.1889,37.5512 C35.9724,37.3724 35.7372,37.1936 35.4831,37.0148 C35.2291,36.836 34.9938,36.6478 34.7774,36.4502 C34.5704,36.2526 34.3916,36.0315 34.241,35.7869 C34.0905,35.5422 34.0152,35.2693 34.0152,34.9682 C34.0152,34.4789 34.1611,34.0225 34.4528,33.5991 C34.7445,33.1756 35.1067,32.8134 35.5396,32.5122 C35.9819,32.2017 36.4618,31.9571 36.9793,31.7783 C37.4968,31.5995 37.9861,31.5101 38.4472,31.5101 C38.7013,31.5101 38.9412,31.543 39.1671,31.6089 C39.3929,31.6654 39.5858,31.7642 39.7458,31.9053 C39.9152,32.037 40.0469,32.2064 40.141,32.4134 C40.2445,32.6205 40.2963,32.8792 40.2963,33.1897 C40.2963,33.3215 40.2821,33.4532 40.2539,33.585 C40.2351,33.7167 40.2163,33.8578 40.1975,34.0084 L38.1508,34.6012 C38.1696,34.5259 38.1838,34.4507 38.1932,34.3754 C38.212,34.3001 38.2214,34.2248 38.2214,34.1495 C38.2214,33.8673 38.1696,33.6649 38.0661,33.5426 C37.972,33.4109 37.845,33.345 37.685,33.345 C37.6098,33.345 37.5157,33.3732 37.4027,33.4297 C37.2992,33.4862 37.191,33.5614 37.0781,33.6555 C36.9746,33.7402 36.8852,33.8437 36.8099,33.9661 C36.7346,34.0884 36.697,34.2201 36.697,34.3613 C36.697,34.5871 36.7582,34.7753 36.8805,34.9259 C37.0122,35.0764 37.1722,35.2176 37.3604,35.3493 C37.5486,35.481 37.7509,35.6175 37.9673,35.7586 C38.1932,35.8904 38.4002,36.0644 38.5884,36.2809 C38.7766,36.4973 38.9318,36.7702 39.0542,37.0995 C39.1859,37.4195 39.2518,37.8288 39.2518,38.3275 Z" id="Path" fill="#FFFFFF" fill-rule="nonzero"></path>
            <path d="M44.2581,41.5315 C44.0228,41.5692 43.7641,41.6115 43.4818,41.6586 C43.1995,41.7056 42.9454,41.748 42.7196,41.7856 C42.7572,41.4751 42.7949,41.1693 42.8325,40.8681 C42.8607,40.6047 42.8842,40.3412 42.9031,40.0777 C42.9313,39.8142 42.9548,39.5884 42.9736,39.4002 L41.7457,39.4002 L41.1811,41.4327 C40.9741,41.461 40.7294,41.4939 40.4471,41.5315 C40.1648,41.5598 39.9013,41.588 39.6567,41.6162 C39.3556,41.6539 39.0592,41.6915 38.7675,41.7291 C39.1438,40.4776 39.5155,39.245 39.8825,38.0311 C40.0331,37.523 40.1883,36.9913 40.3483,36.4361 C40.5177,35.8809 40.6824,35.3305 40.8423,34.7847 C41.0117,34.2295 41.1717,33.6979 41.3222,33.1897 C41.4728,32.6816 41.6045,32.2158 41.7174,31.7924 C42.3573,31.7453 43.0066,31.6889 43.6653,31.623 C44.3334,31.5571 44.9826,31.4678 45.6131,31.3548 C45.5849,31.6559 45.5519,32.0323 45.5143,32.484 C45.4861,32.9263 45.4578,33.4109 45.4296,33.9378 C45.4014,34.4648 45.3731,35.0152 45.3449,35.5892 C45.3167,36.1632 45.2884,36.7278 45.2602,37.283 C45.2132,38.5816 45.1614,39.9601 45.105,41.4186 C44.8227,41.4657 44.5404,41.5033 44.2581,41.5315 Z M42.0844,37.9887 C42.1221,37.9887 42.1879,37.9887 42.282,37.9887 C42.3855,37.9793 42.489,37.9746 42.5925,37.9746 C42.7055,37.9652 42.809,37.9605 42.9031,37.9605 C42.9972,37.9511 43.063,37.9417 43.1007,37.9323 C43.1007,37.8758 43.1054,37.7817 43.1148,37.65 C43.1336,37.5088 43.1477,37.3536 43.1571,37.1842 C43.1759,37.0054 43.1948,36.8125 43.2136,36.6055 C43.2324,36.3985 43.2512,36.1962 43.2701,35.9986 C43.3077,35.5187 43.3547,35.0011 43.4112,34.446 L43.4959,33.218 L43.2842,33.2321 L42.9595,34.446 L42.0844,37.9887 Z" id="Shape" fill="#FFFFFF" fill-rule="nonzero"></path>
            <path d="M49.0658,41.3622 C48.7741,41.3622 48.4636,41.3716 48.1342,41.3904 C47.8143,41.4092 47.4896,41.4374 47.1603,41.4751 C46.831,41.5127 46.5063,41.5645 46.1864,41.6303 C45.8759,41.6868 45.5936,41.7574 45.3395,41.8421 C45.396,41.4186 45.4618,40.9481 45.5371,40.4306 C45.6124,39.9131 45.6971,39.3767 45.7912,38.8215 C45.8947,38.2663 45.9935,37.7065 46.0876,37.1419 C46.1911,36.5773 46.2946,36.0362 46.3981,35.5187 C46.6334,34.286 46.8827,33.0298 47.1462,31.75 L49.6163,31.4254 C49.3622,32.5169 49.1175,33.5803 48.8823,34.6153 C48.7788,35.0576 48.6753,35.5187 48.5718,35.9986 C48.4683,36.4691 48.3695,36.9301 48.2754,37.3818 C48.1813,37.8335 48.0966,38.271 48.0213,38.6945 C47.946,39.1179 47.8849,39.4943 47.8378,39.8237 C48.0731,39.8048 48.3224,39.7954 48.5859,39.7954 C48.8588,39.786 49.0987,39.7813 49.3057,39.7813 C49.3151,39.9601 49.3293,40.1389 49.3481,40.3177 C49.3669,40.4871 49.3857,40.6423 49.4045,40.7835 C49.4328,40.9246 49.4516,41.0516 49.461,41.1646 C49.4798,41.2681 49.4939,41.3386 49.5033,41.3763 C49.4281,41.3763 49.3528,41.3763 49.2775,41.3763 C49.2116,41.3669 49.1411,41.3622 49.0658,41.3622 Z" id="Path" fill="#FFFFFF" fill-rule="nonzero"></path>
            <path d="M49.5423,41.8279 L51.3913,31.7924 L55.8515,31.4113 C55.7857,31.6183 55.7292,31.83 55.6822,32.0465 C55.6351,32.2252 55.5881,32.4134 55.541,32.611 C55.5034,32.7992 55.4704,32.9686 55.4422,33.1192 C55.3481,33.1286 55.2117,33.138 55.0329,33.1474 C54.8635,33.1474 54.68,33.1521 54.4824,33.1615 C54.2848,33.1615 54.0825,33.1615 53.8755,33.1615 C53.6779,33.1615 53.5038,33.1615 53.3532,33.1615 L52.8592,35.688 C53.1509,35.6692 53.4238,35.6551 53.6779,35.6457 C53.8849,35.6363 54.0966,35.6316 54.313,35.6316 C54.5295,35.6316 54.6894,35.6269 54.7929,35.6175 C54.7553,35.8809 54.7177,36.1397 54.68,36.3938 C54.6518,36.6478 54.6142,36.9066 54.5671,37.1701 C54.473,37.1795 54.3177,37.1889 54.1013,37.1983 C53.8943,37.1983 53.6826,37.203 53.4662,37.2124 C53.2215,37.2218 52.9533,37.2313 52.6616,37.2407 L52.1817,39.8378 L54.2425,39.5131 L54.1013,41.1222 L49.5423,41.8279 Z" id="Path" fill="#FFFFFF" fill-rule="nonzero"></path>
            <path d="M60.4927,38.3275 C60.4927,38.8544 60.3892,39.3343 60.1822,39.7672 C59.9846,40.1906 59.7117,40.5576 59.3636,40.8681 C59.0248,41.1787 58.6202,41.4186 58.1497,41.588 C57.6886,41.7574 57.1899,41.8421 56.6535,41.8421 C56.2772,41.8421 55.9008,41.7433 55.5244,41.5457 C55.148,41.3386 54.7857,41.014 54.4375,40.5717 L55.482,38.5251 C55.5479,38.6474 55.6467,38.7745 55.7784,38.9062 C55.9102,39.0285 56.056,39.1367 56.216,39.2308 C56.3854,39.3249 56.55,39.4049 56.71,39.4708 C56.8794,39.5272 57.0299,39.5555 57.1617,39.5555 C57.2746,39.5555 57.3922,39.5367 57.5145,39.499 C57.6369,39.4614 57.7498,39.4049 57.8533,39.3296 C57.9568,39.2544 58.0368,39.1697 58.0933,39.0756 C58.1591,38.9721 58.1921,38.8544 58.1921,38.7227 C58.1921,38.4969 58.1168,38.2899 57.9662,38.1017 C57.8251,37.9041 57.6463,37.7206 57.4299,37.5512 C57.2134,37.3724 56.9782,37.1936 56.7241,37.0148 C56.4701,36.836 56.2348,36.6478 56.0184,36.4502 C55.8114,36.2526 55.6326,36.0315 55.482,35.7869 C55.3315,35.5422 55.2562,35.2693 55.2562,34.9682 C55.2562,34.4789 55.402,34.0225 55.6937,33.5991 C55.9855,33.1756 56.3477,32.8134 56.7806,32.5122 C57.2228,32.2017 57.7027,31.9571 58.2203,31.7783 C58.7378,31.5995 59.2271,31.5101 59.6882,31.5101 C59.9423,31.5101 60.1822,31.543 60.4081,31.6089 C60.6339,31.6654 60.8268,31.7642 60.9868,31.9053 C61.1561,32.037 61.2879,32.2064 61.382,32.4134 C61.4855,32.6205 61.5372,32.8792 61.5372,33.1897 C61.5372,33.3215 61.5231,33.4532 61.4949,33.585 C61.4761,33.7167 61.4573,33.8578 61.4384,34.0084 L59.3918,34.6012 C59.4106,34.5259 59.4247,34.4507 59.4341,34.3754 C59.453,34.3001 59.4624,34.2248 59.4624,34.1495 C59.4624,33.8673 59.4106,33.6649 59.3071,33.5426 C59.213,33.4109 59.086,33.345 58.926,33.345 C58.8507,33.345 58.7566,33.3732 58.6437,33.4297 C58.5402,33.4862 58.432,33.5614 58.3191,33.6555 C58.2156,33.7402 58.1262,33.8437 58.0509,33.9661 C57.9756,34.0884 57.938,34.2201 57.938,34.3613 C57.938,34.5871 57.9992,34.7753 58.1215,34.9259 C58.2532,35.0764 58.4132,35.2176 58.6014,35.3493 C58.7896,35.481 58.9919,35.6175 59.2083,35.7586 C59.4341,35.8904 59.6412,36.0644 59.8294,36.2809 C60.0176,36.4973 60.1728,36.7702 60.2951,37.0995 C60.4269,37.4195 60.4927,37.8288 60.4927,38.3275 Z" id="Path" fill="#FFFFFF" fill-rule="nonzero"></path>
            <path d="M62,0 L0,0 L0,27.8503 L62,27.8503 L62,0 Z M51.04,3.98131 L51.04,7.60519 L47.8925,7.60519 L47.8925,12.0957 L51.04,12.0957 L51.04,15.7251 L47.8925,15.7251 L47.8925,20.2839 L51.04,20.2839 L51.04,23.859 L44.4093,23.859 L44.4093,5.84134 L41.6152,23.8589 L37.5261,23.8716 C37.5261,23.8716 35.4406,11.1118 35.4365,11.084 L35.4365,11.0853 C35.7737,13.1464 34.5069,15.3009 33.385,16.1493 L35.5989,23.8589 L35.5947,23.8589 L35.5886,23.8589 L35.59,23.8631 L35.586,23.8631 L32.156,23.8631 L32.1519,23.8631 L30.4648,17.2852 L29.65,17.4066 L29.65,23.8589 L29.6458,23.8589 L29.6417,23.8589 L29.6417,23.8631 L29.6363,23.8631 L22.9892,23.8589 L22.5798,20.8003 L19.8539,20.8003 L19.443,23.8589 L12.6725,23.8589 L12.6725,14.2781 L11.0974,23.8589 L9.23026,23.8589 L7.63272,14.2781 L7.63272,23.8592 L4.12071,23.8592 L4.12071,3.98137 L8.58052,3.98137 L10.1461,14.2515 L11.7533,3.98125 L16.2117,3.98125 L16.2103,22.2627 L18.8924,3.9786 L23.5507,3.98137 L26.1433,21.6278 L26.1569,3.98137 C26.1569,3.98137 29.6976,3.97996 29.7187,3.98137 C32.9235,3.98137 34.3798,6.38425 34.7906,7.21182 L34.3922,3.98137 L37.9491,3.98137 L39.5543,16.088 L41.1764,3.98131 L51.04,3.98131 Z M21.2318,9.14998 L20.2676,17.6481 L22.233,17.6481 L21.2318,9.14998 Z M29.6498,13.9252 C29.9241,13.9252 30.206,13.8582 30.4762,13.7241 C31.2952,13.3181 31.9926,12.3035 31.9926,10.6933 C31.9926,7.61502 29.9419,7.52854 29.6669,7.52994408 C29.6632,7.52994408 29.6599,7.53034 29.6568,7.53069 C29.6543,7.53098 29.652,7.53125 29.6498,7.53125 L29.6498,13.9252 Z M58.1161,23.8562 L58.1161,20.2812 L55.1305,20.2812 L55.1305,3.9786 L51.6478,3.9786 L51.6478,23.8562 L58.1161,23.8562 Z" id="Shape" fill="#DC042B"></path>
        </g>
    </g>
</svg>